PathFileType	4	(X/Y/Z)	C:/Users/opensim2020/Desktop/walking_exp_matlab/subject03_walking13_straight_01.trc	
DataRate	CameraRate	NumFrames	NumMarkers	Units	OrigDataRate	OrigDataStartFrame	OrigNumFrames	
100.00	100.00	7	46	mm	100.00	615	185	
Frame#	Time	LFHD			RFHD			LBHD			RBHD			C7			T10			CLAV			STRN			RBAK			LSHO			LUPA			LELB			LFRM			LWRA			LWRB			LFIN			RSHO			RUPA			RELB			RFRM			RWRA			RWRB			RFIN			LASI			RASI			LPSI			RPSI			LTHI			LKNE			LTIB			LANK			LHEE			LTOE			RTHI			RKNE			RTIB			RANK			RHEE			RTOE			*39			*40			*41			*42			*43			*44			*45			
		X1	Y1	Z1	X2	Y2	Z2	X3	Y3	Z3	X4	Y4	Z4	X5	Y5	Z5	X6	Y6	Z6	X7	Y7	Z7	X8	Y8	Z8	X9	Y9	Z9	X10	Y10	Z10	X11	Y11	Z11	X12	Y12	Z12	X13	Y13	Z13	X14	Y14	Z14	X15	Y15	Z15	X16	Y16	Z16	X17	Y17	Z17	X18	Y18	Z18	X19	Y19	Z19	X20	Y20	Z20	X21	Y21	Z21	X22	Y22	Z22	X23	Y23	Z23	X24	Y24	Z24	X25	Y25	Z25	X26	Y26	Z26	X27	Y27	Z27	X28	Y28	Z28	X29	Y29	Z29	X30	Y30	Z30	X31	Y31	Z31	X32	Y32	Z32	X33	Y33	Z33	X34	Y34	Z34	X35	Y35	Z35	X36	Y36	Z36	X37	Y37	Z37	X38	Y38	Z38	X39	Y39	Z39	X40	Y40	Z40	X41	Y41	Z41	X42	Y42	Z42	X43	Y43	Z43	X44	Y44	Z44	X45	Y45	Z45	X46	Y46	Z46	

70	0.690	-1055.85144	-484.90173	1624.77002	-924.87634	-509.49493	1625.46289	-1074.30371	-599.00299	1555.71130	-944.80176	-618.91150	1556.38074	-1010.21790	-615.75739	1402.95422	-1011.98761	-647.71722	1096.17078	-998.83813	-488.12955	1334.46643	-1005.10663	-439.75949	1168.47034	-924.97064	-672.23950	1229.39795	-1155.41577	-534.24457	1376.04114	-1230.87659	-514.13837	1187.34900	-1238.79858	-473.35327	1073.13611	-1215.69592	-380.90155	990.21301	-1161.47583	-297.42279	921.82861	-1210.15454	-310.94836	900.20343	-1188.10669	-241.44540	862.55969	-846.85577	-559.25482	1360.07434	-776.49542	-589.24689	1139.07532	-765.00952	-587.44635	1024.93372	-760.09607	-600.42877	888.42523	-791.96960	-593.15826	786.26837	-747.68219	-624.94330	790.81384	-762.47876	-633.45038	714.03021	-1118.81042	-495.73892	917.50153	-885.57251	-491.90463	938.74976	-1070.47559	-656.43707	944.91418	-923.20123	-652.89020	967.93958	-1163.26392	-554.92139	608.85034	-1139.40857	-555.50275	429.04861	-1141.26404	-718.73199	316.96054	-1104.91687	-886.40417	196.04291	-1070.73242	-933.93640	215.85277	-1065.47827	-851.31262	52.79396	-832.98877	-500.82852	647.68011	-876.86786	-447.19345	478.11591	-869.23981	-473.67612	283.94281	-915.54419	-489.08344	68.82098	-966.21124	-535.52838	36.01428	-931.24329	-349.52310	33.31037																					 
71	0.700	-1055.67542	-471.68069	1626.25623	-924.61041	-496.06076	1627.29614	-1073.67126	-585.96179	1557.43494	-944.15021	-605.55298	1558.32837	-1008.79907	-602.75293	1404.70862	-1010.85968	-634.50604	1097.67456	-998.66132	-475.36566	1336.11218	-1005.39514	-426.73801	1170.17139	-922.56421	-658.58954	1230.82239	-1155.14893	-522.62109	1377.30310	-1229.86499	-504.34149	1187.87817	-1237.83447	-464.28546	1073.00781	-1215.35669	-373.34006	987.96332	-1162.15979	-291.04807	917.23602	-1210.85608	-305.54071	896.28778	-1189.54053	-237.14275	856.19049	-845.73492	-544.58270	1361.38525	-774.68634	-572.41876	1140.28076	-762.85693	-569.86511	1026.21667	-757.83038	-580.61389	889.49237	-790.72290	-572.15356	787.42407	-745.79187	-603.36847	791.46606	-760.63831	-609.94147	714.59296	-1117.89111	-482.32965	918.73602	-884.95691	-478.48251	940.03339	-1069.84741	-643.44800	945.64063	-922.51563	-639.67932	969.75183	-1162.48230	-536.39032	610.48785	-1138.87244	-529.10266	430.54944	-1139.28333	-692.24878	319.99210	-1102.47021	-860.55182	199.67822	-1067.40942	-908.79803	218.33607	-1066.11292	-822.45898	56.56120	-832.80432	-492.72583	647.82178	-875.83398	-442.11050	477.42578	-868.56805	-471.22818	283.73175	-915.48138	-489.27246	68.91239	-966.04102	-535.65729	36.07800	-931.12653	-349.58646	33.21446				-1034.82910	-567.05469	1669.67224															 
72	0.710	-1055.62158	-458.53992	1627.79028	-924.47412	-482.45215	1629.05505	-1073.12219	-573.01135	1559.12195	-943.55505	-592.15436	1560.29260	-1007.53973	-589.66522	1406.56787	-1009.77386	-621.46283	1099.10742	-998.56433	-462.48413	1337.75781	-1005.60498	-413.86716	1171.85889	-920.28931	-644.89307	1232.24683	-1154.80542	-511.02444	1378.50720	-1229.19629	-494.60059	1188.54883	-1237.16956	-455.31870	1072.84412	-1215.13831	-366.12299	985.36890	-1163.18542	-284.95081	912.39917	-1211.89905	-300.85846	891.88641	-1191.14453	-233.70760	849.29993	-844.82886	-529.93237	1362.71838	-773.04443	-555.24316	1141.45667	-760.82526	-551.88165	1027.53235	-755.78406	-560.45142	890.62897	-788.62122	-550.04529	788.78558	-743.94647	-581.40344	792.22833	-758.13953	-585.28143	715.40094	-1117.82874	-469.94345	920.10345	-884.33716	-465.17059	941.25970	-1069.06909	-630.57690	946.61169	-921.63983	-626.53888	971.42889	-1161.64783	-517.50873	612.76337	-1138.46863	-503.04828	433.31299	-1137.65112	-665.52954	322.46252	-1099.99438	-833.35168	201.19638	-1064.32007	-882.27899	218.64545	-1065.69507	-791.65912	59.07436	-832.24969	-484.25162	648.42694	-875.08795	-437.15182	476.85989	-867.98151	-469.15643	283.66147	-915.34229	-489.60178	69.00069	-965.98163	-535.79492	36.13649	-931.04810	-349.69385	33.16824				-1034.43347	-553.54858	1671.38110															 
73	0.720	-1055.50269	-445.31393	1629.24573	-924.36060	-468.82144	1630.82434	-1072.58069	-559.94684	1560.76123	-942.97821	-578.75403	1562.21155	-1006.37329	-576.60742	1408.31812	-1008.56110	-608.50165	1100.64893	-998.50537	-449.61423	1339.39575	-1005.79156	-400.86609	1173.51587	-918.15723	-631.32275	1233.74719	-1154.68811	-499.37271	1379.85999	-1228.41907	-484.88486	1189.14465	-1236.18982	-446.41599	1072.82886	-1215.22668	-359.34610	982.52985	-1164.29773	-280.41730	906.34778	-1213.23987	-296.75436	887.12750	-1192.87439	-231.05357	841.92139	-843.94550	-515.43134	1364.08081	-771.57855	-537.84161	1142.69153	-758.95569	-533.67334	1028.89758	-753.87604	-539.80457	891.88177	-786.67084	-527.63153	790.41241	-742.12134	-558.72998	792.91339	-755.82312	-559.96454	716.49799	-1117.59644	-457.46362	921.87408	-883.70258	-452.05695	942.16022	-1068.12195	-617.74719	947.92010	-920.65869	-613.48145	972.96027	-1160.68384	-497.72971	615.30798	-1137.99500	-477.42584	436.67377	-1136.22095	-638.54956	323.85278	-1097.47021	-804.98126	200.93515	-1061.35974	-854.81189	216.63934	-1064.52283	-758.56769	60.37350	-831.91565	-476.07935	648.88702	-874.50958	-432.47000	476.41049	-867.58948	-467.24585	283.67047	-915.27069	-489.78815	69.08620	-965.93127	-535.93750	36.26036	-930.96960	-349.82336	33.11686																					 
74	0.730	-1055.39856	-432.06348	1630.57849	-924.24286	-455.31995	1632.43701	-1072.34985	-546.90149	1562.24792	-942.51746	-565.29993	1563.96619	-1005.35449	-563.57556	1409.95813	-1007.28809	-595.60236	1102.19116	-998.45709	-436.78650	1340.92480	-1005.88690	-388.01526	1175.15503	-916.21027	-617.69122	1235.20947	-1154.47070	-487.66605	1381.16223	-1227.51770	-475.28210	1189.66492	-1234.98889	-437.61005	1072.63306	-1215.50891	-352.93115	979.50122	-1165.73022	-276.11282	900.31940	-1214.77710	-293.37424	882.16956	-1194.87598	-229.21883	834.30737	-843.26611	-500.93787	1365.51050	-770.30774	-520.33490	1143.95911	-757.30548	-515.08728	1030.37231	-752.30933	-518.76477	893.24927	-784.28217	-503.97278	792.38342	-740.19159	-535.93799	794.06091	-753.23267	-534.25128	717.69519	-1116.99487	-444.80048	924.06805	-882.87512	-439.04263	942.98004	-1067.10364	-604.99615	949.63519	-919.56525	-600.43311	974.28760	-1159.75781	-477.38074	617.90405	-1137.38647	-452.22543	440.21945	-1134.68530	-611.38025	324.60782	-1094.83374	-775.65338	198.83589	-1058.39368	-826.58295	212.21530	-1063.05615	-723.02777	60.74553	-831.54065	-467.35062	649.24225	-873.72797	-428.23856	475.92453	-867.35229	-465.43991	283.69028	-915.63794	-490.06696	69.34328	-966.16443	-536.14020	36.67550	-930.88507	-349.87823	33.06858	-1019.43469	-533.07629	1675.17896																		 
75	0.740	-1055.44568	-418.84976	1631.76404	-924.18433	-441.70786	1633.83484	-1071.90381	-533.80206	1563.65576	-942.05334	-551.94287	1565.63025	-1004.41907	-550.52399	1411.47375	-1005.83826	-582.67896	1103.57288	-998.36005	-423.93991	1342.33789	-1005.93274	-375.11380	1176.56787	-914.53937	-604.18579	1236.70044	-1154.09509	-475.99390	1382.35107	-1226.75488	-465.63852	1190.19727	-1234.15735	-429.15524	1072.47205	-1216.01392	-346.97226	976.31604	-1167.35986	-272.38580	894.22821	-1216.55261	-290.58432	877.10516	-1197.08240	-228.23985	826.42804	-842.72107	-486.73022	1366.93237	-769.21539	-502.82770	1145.29895	-755.88745	-496.28275	1031.92212	-750.32031	-497.68497	894.76599	-782.86212	-481.33246	794.24854	-738.36456	-512.81927	795.37640	-750.58954	-508.11096	719.29694	-1115.50171	-431.50592	926.50226	-882.00378	-426.13437	943.61780	-1066.01184	-592.13092	951.58594	-918.45050	-587.42352	975.47400	-1158.91321	-457.19946	620.48083	-1136.60876	-427.55148	443.76404	-1132.96021	-583.90894	325.20782	-1092.35559	-745.37823	195.14189	-1055.54968	-797.24683	206.02122	-1061.39624	-685.50690	60.16542	-832.33459	-459.50018	649.60242	-873.36615	-424.20197	475.37369	-867.20782	-463.83771	283.78201	-915.59186	-490.35602	69.51676	-966.09009	-536.03027	36.51396	-930.89191	-349.90271	32.97763																					 
76	0.750	-1055.32764	-405.48523	1632.75671	-924.03125	-428.24683	1635.03601	-1071.58057	-520.64197	1564.88757	-941.66925	-538.52063	1567.05627	-1003.59009	-537.38141	1412.70935	-1004.32227	-569.73828	1104.86719	-998.28351	-411.10461	1343.63220	-1005.85089	-362.33002	1177.81226	-913.06940	-590.70624	1238.08606	-1153.78027	-464.12207	1383.49182	-1225.94641	-455.89542	1190.56079	-1233.30334	-420.83301	1072.29688	-1216.67432	-341.46661	973.11298	-1169.23938	-269.31876	887.97601	-1218.54822	-288.35193	871.99011	-1199.51990	-228.06818	818.45532	-842.28473	-472.68256	1368.29517	-768.19336	-485.29819	1146.62646	-754.64655	-477.26373	1033.53857	-748.96936	-476.04239	896.40259	-781.09399	-457.94141	796.32715	-736.56140	-489.29178	796.79456	-747.87878	-481.66766	721.15161	-1114.67688	-418.86890	928.80823	-881.07410	-413.34979	944.19812	-1065.07031	-579.35522	953.61462	-917.37329	-574.51227	976.47974	-1158.25745	-437.54767	623.10986	-1135.78345	-403.55191	447.34195	-1131.12769	-556.51837	324.73367	-1089.79333	-714.00690	189.95537	-1052.59924	-766.69470	197.82130	-1059.54456	-646.11768	59.05912	-832.06842	-450.97894	649.87189	-873.00116	-420.15701	474.77344	-867.12152	-462.26697	283.83920	-915.78003	-490.40305	69.66876	-966.24908	-536.04059	36.68990	-930.94537	-349.87662	32.86259																					 
